<svg xmlns="http://www.w3.org/2000/svg" xml:space="preserve" id="Layer_1" x="0" y="0" style="enable-background:new 0 0 800 800" version="1.1" viewBox="0 0 800 800"><style>.st0{fill:#bdccd8}.st1{fill:#1453a2}.st2{fill:#96a7ba}</style><path d="M128.9 483.8c1.6-1 3.7-.3 4.5 1.5 2.3 5.3 5.6 15.4 2.4 27-3.5 12.8-12.8 19.8-17.9 22.9-1.6 1-3.7.3-4.5-1.5-2.3-5.3-5.6-15.4-2.4-27 3.4-12.8 12.7-19.9 17.9-22.9zM8.7 406c0-1.5 1.3-2.6 2.7-2.5 4.3.5 12 2.3 18.2 9 6.8 7.4 7.7 16.5 7.7 21.2 0 1.5-1.3 2.6-2.7 2.5-4.3-.5-12-2.3-18.2-9-6.8-7.4-7.7-16.5-7.7-21.2zM108.3 449.9c1.4-.8 3.1-.2 3.7 1.2 1.9 4.4 4.6 12.9 2 22.5-2.9 10.7-10.7 16.6-15 19.1-1.4.8-3.1.2-3.7-1.2-1.9-4.4-4.6-12.9-2-22.5 2.9-10.6 10.7-16.5 15-19.1zM100.5 413.1c1.3-.5 2.7.3 3.1 1.7 1.1 4.2 2.2 12-1.5 20.1-4.1 8.9-11.8 12.9-15.9 14.5-1.3.5-2.7-.3-3.1-1.7-1.1-4.2-2.2-12 1.5-20.1 4.1-8.9 11.8-12.9 15.9-14.5zM791.2 406c0-1.5-1.3-2.6-2.7-2.5-4.3.5-12 2.3-18.2 9-6.8 7.4-7.7 16.5-7.7 21.2 0 1.5 1.3 2.6 2.7 2.5 4.3-.5 12-2.3 18.2-9 6.9-7.4 7.7-16.5 7.7-21.2zM699.4 413.1c-1.3-.5-2.7.3-3.1 1.7-1.1 4.2-2.2 12 1.5 20.1 4.1 8.9 11.8 12.9 15.9 14.5 1.3.5 2.7-.3 3.1-1.7 1.1-4.2 2.2-12-1.5-20.1-4.1-8.9-11.8-12.9-15.9-14.5zM90.7 382.3c1.1-.4 2.3.2 2.6 1.4.9 3.5 1.9 10.1-1.2 16.8-3.4 7.5-9.8 10.8-13.3 12.1-1.1.4-2.3-.2-2.6-1.4-.9-3.5-1.9-10.1 1.2-16.8 3.5-7.4 9.9-10.7 13.3-12.1zM81.6 352.9c.9-.4 2 0 2.3.9 1 2.9 2.4 8.3.4 14.2-2.3 6.6-7.4 9.9-10.2 11.3-.9.4-2 0-2.3-.9-1-2.9-2.4-8.3-.4-14.2 2.3-6.5 7.4-9.9 10.2-11.3zM709.2 382.3c-1.1-.4-2.3.2-2.6 1.4-.9 3.5-1.9 10.1 1.2 16.8 3.4 7.5 9.8 10.8 13.3 12.1 1.1.4 2.3-.2 2.6-1.4.9-3.5 1.9-10.1-1.2-16.8-3.5-7.4-9.9-10.7-13.3-12.1zM718.3 352.9c-.9-.4-2 0-2.3.9-1 2.9-2.4 8.3-.4 14.2 2.3 6.6 7.4 9.9 10.2 11.3.9.4 2 0 2.3-.9 1-2.9 2.4-8.3.4-14.2-2.3-6.5-7.4-9.9-10.2-11.3zM16.6 364.7c.3-1.3 1.6-2 2.9-1.5 3.6 1.4 9.9 4.6 13.9 11.8 4.3 7.9 3.2 16 2.2 20-.3 1.3-1.6 2-2.9 1.5-3.6-1.4-9.9-4.6-13.9-11.8-4.3-7.9-3.2-16-2.2-20zM50.8 324.9c1-1.1 2.7-1.2 3.7 0 3 3.4 7.9 10.3 8.2 19.8.4 10.6-5 18.3-8.2 21.9-1 1.1-2.7 1.2-3.7 0-3-3.4-7.9-10.3-8.2-19.8-.4-10.6 5-18.3 8.2-21.9zM155.5 513.2c2-1.6 4.9-1.1 6.2 1.2 4 6.6 10 19.5 7.7 35.3-2.5 17.6-13.7 28.6-19.9 33.6-2 1.6-4.9 1.1-6.2-1.2-4-6.6-10-19.5-7.7-35.3 2.5-17.6 13.7-28.6 19.9-33.6zM192.3 552c2-1.6 5-1.1 6.3 1.2 4.1 6.8 10.2 20 7.9 36.2-2.6 18-14 29.3-20.4 34.4-2 1.6-5 1.1-6.3-1.2-4.1-6.8-10.2-20-7.9-36.2 2.5-18 13.9-29.3 20.4-34.4zM.7 446.9c-.3-1.8.9-3.6 2.7-3.7 5.4-.5 15.3-.3 24.4 6.4 10.1 7.4 13.3 18.3 14.3 24.1.3 1.8-.9 3.6-2.7 3.7-5.4.5-15.3.3-24.4-6.4C4.9 463.6 1.7 452.6.7 446.9zM1.4 493.7c-.6-2.2.8-4.5 3-4.9 6.6-1.2 19-1.9 31 5.4 13.2 8.1 18.3 21.4 20.1 28.5.6 2.2-.8 4.5-3 4.9-6.6 1.2-19 1.9-31-5.4-13.2-8.1-18.3-21.5-20.1-28.5zM9.7 547.1c-1-2.6.4-5.5 3-6.2 7.7-2.2 22.2-4.8 37.3 2.3 16.7 7.9 24.3 22.9 27.4 31 1 2.6-.4 5.5-3 6.2-7.7 2.2-22.2 4.8-37.3-2.3-16.7-7.9-24.3-22.9-27.4-31zM27.6 607.4c-1.6-2.8-.4-6.4 2.4-7.7 8.6-4 25-9.5 43.6-4 20.6 6.1 31.9 22.2 36.8 31 1.6 2.8.4 6.4-2.4 7.7-8.6 4-25 9.5-43.6 4-20.6-6.1-31.9-22.2-36.8-31zM69.1 666.8c-1.8-3.1-.6-7.2 2.6-8.7 9.5-4.6 27.8-11.2 48.8-5.3 23.2 6.4 36.3 24.3 42 34.1 1.8 3.1.6 7.2-2.6 8.7-9.5 4.6-27.8 11.2-48.8 5.3-23.2-6.5-36.3-24.3-42-34.1zM671.1 483.8c-1.6-1-3.7-.3-4.5 1.5-2.3 5.3-5.6 15.4-2.4 27 3.5 12.8 12.8 19.8 17.9 22.9 1.6 1 3.7.3 4.5-1.5 2.3-5.3 5.6-15.4 2.4-27-3.5-12.8-12.8-19.9-17.9-22.9zM691.6 449.9c-1.4-.8-3.1-.2-3.7 1.2-1.9 4.4-4.6 12.9-2 22.5 2.9 10.7 10.7 16.6 15 19.1 1.4.8 3.1.2 3.7-1.2 1.9-4.4 4.6-12.9 2-22.5-2.9-10.6-10.7-16.5-15-19.1zM783.3 364.7c-.3-1.3-1.6-2-2.9-1.5-3.6 1.4-9.9 4.6-13.9 11.8-4.3 7.9-3.2 16-2.2 20 .3 1.3 1.6 2 2.9 1.5 3.6-1.4 9.9-4.6 13.9-11.8 4.4-7.9 3.2-16 2.2-20zM749.2 324.9c-1-1.1-2.7-1.2-3.7 0-3 3.4-7.9 10.3-8.2 19.8-.4 10.6 5 18.3 8.2 21.9 1 1.1 2.7 1.2 3.7 0 3-3.4 7.9-10.3 8.2-19.8.3-10.6-5.1-18.3-8.2-21.9zM644.4 513.2c-2-1.6-4.9-1.1-6.2 1.2-4 6.6-10 19.5-7.7 35.3 2.5 17.6 13.7 28.6 19.9 33.6 2 1.6 4.9 1.1 6.2-1.2 4-6.6 10-19.5 7.7-35.3-2.5-17.6-13.6-28.6-19.9-33.6zM607.7 552c-2-1.6-5-1.1-6.3 1.2-4.1 6.8-10.2 20-7.9 36.2 2.6 18 14 29.3 20.4 34.4 2 1.6 5 1.1 6.3-1.2 4.1-6.8 10.2-20 7.9-36.2-2.6-18-14-29.3-20.4-34.4zM799.3 446.9c.3-1.8-.9-3.6-2.7-3.7-5.4-.5-15.3-.3-24.4 6.4-10.1 7.4-13.3 18.3-14.3 24.1-.3 1.8.9 3.6 2.7 3.7 5.4.5 15.3.3 24.4-6.4 10-7.4 13.2-18.4 14.3-24.1zM798.5 493.7c.6-2.2-.8-4.5-3-4.9-6.6-1.2-19-1.9-31 5.4-13.2 8.1-18.3 21.4-20.1 28.5-.6 2.2.8 4.5 3 4.9 6.6 1.2 19 1.9 31-5.4 13.2-8.1 18.3-21.5 20.1-28.5zM790.2 547.1c1-2.6-.4-5.5-3-6.2-7.7-2.2-22.2-4.8-37.3 2.3-16.7 7.9-24.3 22.9-27.4 31-1 2.6.4 5.5 3 6.2 7.7 2.2 22.2 4.8 37.3-2.3 16.7-7.9 24.3-22.9 27.4-31zM772.3 607.4c1.6-2.8.4-6.4-2.4-7.7-8.6-4-25-9.5-43.6-4-20.6 6.1-31.9 22.2-36.8 31-1.6 2.8-.4 6.4 2.4 7.7 8.6 4 25 9.5 43.6 4 20.6-6.1 31.9-22.2 36.8-31zM730.8 666.8c1.8-3.1.6-7.2-2.6-8.7-9.5-4.6-27.8-11.2-48.8-5.3-23.2 6.4-36.3 24.3-42 34.1-1.8 3.1-.6 7.2 2.6 8.7 9.5 4.6 27.8 11.2 48.8 5.3 23.3-6.5 36.3-24.3 42-34.1z" class="st0"/><path d="M33.7 263.3c1.5-4.6 4.2-8.6 7.3-11.4l6.4 2.1c-3.5 2.5-6.7 6.5-8.3 11.2-3.4 10.1 1.8 19.7 11.7 23 9.8 3.3 19.8-1.3 23.3-11.8 1.6-4.9 1.4-9.8-.2-14.2l6.4 2.1c1.1 4.3.6 9.5-.9 14.2-4.5 13.4-17.4 19.9-30.4 15.6-12.7-4.4-20-17-15.3-30.8zM44.6 236.7l2.6-5.5 37.1 17.6 9.4-19.9 5 2.4-12.1 25.4-42-20zM73.1 182.4c7.3-11.4 21.6-14.3 33-7 11.4 7.3 14.7 21.5 7.4 32.9-7.3 11.4-21.6 14.3-33 7-11.4-7.3-14.7-21.5-7.4-32.9zm35.6 22.9c5.5-8.6 2.7-19.2-6-24.7s-19.5-3.7-24.9 4.9c-5.5 8.6-2.7 19.2 6 24.7s19.4 3.6 24.9-4.9zM114.2 167.4l-18.6-16.2 4-4.6 18.1 15.8c4.3 3.8 7.3 5.9 10.3 6.6 3.3.8 7.5 0 11.5-4.6 3.7-4.3 4.4-8.3 3-11.9-1.1-2.9-3.8-5.6-7.7-9.1l-18.3-16 3.9-4.5 18 15.8c5.1 4.5 8.8 8.2 10.1 12.9 1.4 5.2-.2 11.2-4.9 16.7-4.8 5.5-10.5 7.7-15.8 7-4.9-.8-9.2-4.1-13.6-7.9zM132.7 110.8l9.7-8.4c4.7-4 9.6-7 15-7.9 7.7-1.3 15.2 1.7 20.5 7.8 5 5.9 7 13.3 5.2 20.3-1.5 5.9-5.4 10.8-11.5 16.1l-8.5 7.4-30.4-35.3zm36.1 23.1c4.2-3.7 7.2-7.1 8.5-11.4 1.5-5 .4-11.1-3.9-16-4.4-5.1-10.2-6.8-15.2-6.2-4.8.6-8.9 3.4-12.7 6.7l-4.5 3.9 23.2 26.9 4.6-3.9zM208.6 98c5.5.7 11-1 14.6-3.1 4.8-2.8 6.9-7 4.3-11.4-3.1-5.2-8.3-3.3-14.4-1.6-6.6 1.7-13.5 2.7-17.8-4.7-4.2-7.1-1.5-14.2 6.3-18.9 3.8-2.2 8.9-4 13.3-3.8l3.3 5.5c-5.2-.4-10.4 1.1-13.8 3.2-4.5 2.7-6.5 6.5-4.1 10.6 3 5 8.1 3.1 13.8 1.6 6.8-1.8 13.9-2.9 18.5 4.8 4.3 7.3 1.5 14.8-6.5 19.6-3.9 2.3-9.2 4-14 4l-3.5-5.8zM227.7 44.8l24.5-11.1 2.3 5-19 8.6 5.8 12.9 16.6-7.5 2.2 4.9-16.6 7.5 6.6 14.6 19.5-8.8 2.3 5L247 87.3l-19.3-42.5zM286.9 21.1c4.7-1.5 9.4-1.7 13.5-.8l2 6.4c-4.1-1.4-9.2-1.7-13.9-.2-10.1 3.2-14.9 13-11.8 22.9 3.1 9.9 12.6 15.3 23.2 12 4.9-1.5 8.8-4.6 11.4-8.5l2 6.5c-2.9 3.4-7.3 6.1-12 7.5-13.5 4.2-26.4-2.5-30.4-15.5-3.9-12.7 2-26 16-30.3zM319 38.4l-4.1-24.3 6-1 4 23.7c.9 5.7 1.9 9.1 3.8 11.6 2.1 2.7 5.8 4.7 11.9 3.7 5.6-.9 8.7-3.7 9.9-7.3 1-3 .6-6.7-.2-11.9l-4-24 5.8-1 4 23.6c1.1 6.7 1.6 11.9-.4 16.4-2.2 4.9-7.2 8.6-14.4 9.8-7.2 1.2-13-.7-16.6-4.6-3.5-3.7-4.8-8.9-5.7-14.7zM368.9 6.4l12.6-.4c4.7-.2 9.2-.1 13.1 1.9 3.9 2 6.6 5.5 6.8 10.7.2 5-2.2 8.9-5.6 11.1-1.6 1.1-3.4 1.7-5.3 2.1l15.6 20-7.4.2-14.9-19.5-7.9.3.7 20-6.1.2-1.6-46.6zm14.7 21.2c4.1-.1 7-.7 9.1-2.4 1.7-1.3 2.7-3.3 2.6-5.9-.1-3-1.5-5.2-4-6.5-2.6-1.3-5.5-1.4-10-1.2l-6.1.2.5 16.1 7.9-.3zM415.8 6.1l6.1.3-2.5 46.6-6.1-.3 2.5-46.6zM448.5 14.7 433 12.5l.8-5.5 37 5.3-.8 5.5-15.5-2.2-5.8 40.7-6.1-.9 5.9-40.7zM490.4 43.5 479.9 14l6.8 1.9 4.6 13.1c1.1 3.3 2.3 6.7 3.5 10.2h.1c2.7-2.3 5.4-4.6 8.2-7l10.6-8.8 6.6 1.8-24 19.8-5.6 20.4-5.9-1.6 5.6-20.3zM563 43.1l5.3 2.6-3.1 50.4-5.9-2.9 1-14-19-9.2-10.5 9.4-5.6-2.7L563 43.1zm-17.4 23 15.1 7.3.8-10.3c.3-4 .7-8.3 1.1-12.3l-.1-.1c-2.9 2.8-6.1 5.6-9.3 8.5l-7.6 6.9zM595.8 60.7 601 64l-22.4 34.5 18.5 12-3 4.6-23.6-15.3 25.3-39.1zM630 83.9l4.7 3.9-25.9 31.9 17.1 13.9-3.5 4.3-21.8-17.8L630 83.9zM660.6 110.1l4.4 4.2-32.2 33.7-4.4-4.2 32.2-33.7zM686 136.3l3.8 4.4-22.6 45.1-4.3-5 6.4-12.5-13.7-15.9-13.3 4.5-4.1-4.7 47.8-15.9zm-25 14.3 11 12.7 4.8-9.2c1.9-3.6 3.9-7.3 5.8-10.9l-.1-.1c-3.8 1.4-7.8 2.8-11.9 4.2l-9.6 3.3zM670.8 190.9l39.2-25.2 3.1 4.9-11.2 30.4c-1.5 4.2-3.1 8.5-4.8 12.7l.1.1c3.4-2.3 7.3-4.9 11.1-7.3l19.7-12.7 3.2 5-39.1 25.2-3.1-4.9 11.2-30.4c1.5-4.2 3.1-8.5 4.8-12.7l-.1-.1c-3.4 2.3-7.3 4.8-11.1 7.3L674 195.9l-3.2-5zM749.3 233.8c2 4.4 2.8 9.1 2.5 13.3l-6.1 2.8c.9-4.2.5-9.3-1.6-13.8-4.4-9.7-14.8-13.1-24.2-8.8-9.4 4.3-13.6 14.5-8.9 24.6 2.2 4.7 5.6 8.1 9.9 10.2l-6.1 2.8c-3.7-2.4-7-6.5-9-11-5.9-12.9-.9-26.5 11.5-32.2 12-5.4 25.9-1.2 32 12.1zM759.5 260.7l8.2 25.6-5.3 1.7-6.4-19.8-13.5 4.3 5.6 17.4-5.1 1.6-5.6-17.4-15.3 4.9 6.5 20.4-5.3 1.7-8.4-26.2 44.6-14.2zM219.7 202.3h-26.4v-15.7H264v15.7h-26.4v66h-17.9v-66zM263.1 212.8h16.8v7.4l.2.1c3.8-5.4 9.3-8.2 16.1-8.2 1.1 0 2.4.1 3.6.5v16.1c-1.4-.3-3-.6-4.6-.6-6 0-10.9 1.8-15 6.5v33.6H263v-55.4zM345 263.1c-4.3 3.7-9.7 6.5-16.9 6.5-6.4 0-11.3-2.3-14.4-5.5-3.6-3.7-5.3-8.8-5.3-17v-34.2h17.2v31.6c0 4.1.7 6.4 2.1 8 1.5 1.7 3.7 2.5 6.1 2.5 4.3 0 8.6-2.4 11.3-5v-37.1h17.2v55.5h-16.9v-5.2l-.4-.1zM375.1 250c7.7 4.5 16.6 6.4 21.9 6.4 4.7 0 7.6-1.2 7.6-4.3 0-4.3-6.2-3.8-14.6-6-10.5-2.6-16.7-7-16.7-16.1.1-11.7 10.5-18.4 24.3-18.4 6.7 0 14.9 1.4 21.2 4.4v14.8c-7.3-4.2-15.9-6-20.9-6-4.5 0-7.2 1.4-7.2 4 0 4.1 6 3.7 14.2 5.8 10.6 2.6 17 6.7 17 16.3-.1 12.2-10.7 18.8-24.9 18.8-6.7 0-15.2-1.4-21.9-4.6V250zM468.4 266.6c-2.6 1.7-7.7 3-12.5 3-5.6 0-10.9-1.8-14.4-5.5-2.9-3.2-4.9-7.8-4.9-16.6v-20.4h-9v-14.2h9v-14.4l17.2-2.9V213h14.7v14.2h-14.7v18.6c0 5.4 1.2 9.5 6.4 9.5 2.8 0 6-1.1 8.2-2.3v13.6zM491.9 245.1c1.9 7.7 8.2 11.2 16.1 11.2 6.2 0 13-2.1 18.8-6.1v14.3c-5.4 3.4-13.8 5.1-21.1 5.1-18.3 0-31.5-11.4-31.5-28.8 0-17.7 13.8-29.2 29.1-29.2 13.7 0 26.5 9 26.5 27.7 0 1.9-.1 4.4-.3 5.9h-37.6zm22.2-10.8c-1-6-5.4-9.6-10.9-9.6-5.3 0-9.9 3.3-11.4 9.6h22.3zM578.2 265.3c-3.7 2.6-8.7 4.3-14.1 4.3-14 0-26.1-10.8-26.1-27.9 0-17.5 12.8-30.1 29.3-30.1 4.2 0 7.6.8 10.5 2l.2-.1v-31.4h17.2v86.2h-16.8v-2.9l-.2-.1zm-.1-37.3c-2.5-1.2-5.5-2.1-8.9-2.1-9 0-13.9 6.8-13.9 15.1 0 8.2 4.7 14.7 13.2 14.7 3.7 0 7.1-1.2 9.6-2.8V228zM298.9 365.1c-7 3.7-15.8 5.4-23.9 5.4-26.3 0-44.5-18.2-44.5-42 0-23.7 18.2-42.2 44.5-42.2 8.2 0 16.3 1.9 22.7 5.1v18.2c-6-4.1-14.2-7.1-22.6-7.1-15.8 0-26.6 11.1-26.6 25.8 0 14.6 10.5 26.1 27.3 26.1 8.5 0 16.4-2.9 23.1-7.6v18.3zM310.6 283.1h17.2v86.2h-17.2v-86.2zM369.4 312.6c17.7 0 30.9 12.6 30.9 29s-13.2 29-30.9 29-30.9-12.6-30.9-29c-.1-16.4 13.1-29 30.9-29zm0 43.2c7.8 0 13.8-6.3 13.8-14.2 0-7.9-6-14.2-13.8-14.2-7.8 0-13.8 6.3-13.8 14.2 0 7.9 6 14.2 13.8 14.2zM447.7 364c-4.3 3.7-9.7 6.5-16.9 6.5-6.4 0-11.3-2.3-14.4-5.5-3.6-3.7-5.3-8.8-5.3-17v-34.2h17.2v31.6c0 4.1.7 6.4 2.1 8 1.5 1.7 3.7 2.5 6.1 2.5 4.3 0 8.6-2.4 11.3-5v-37.1H465v55.5h-16.9v-5.2l-.4-.1zM516.4 366.3c-3.7 2.6-8.7 4.3-14.1 4.3-14 0-26.1-10.8-26.1-27.9 0-17.5 12.8-30.1 29.3-30.1 4.2 0 7.6.8 10.5 2l.2-.1v-31.4h17.2v86.2h-16.8v-2.9l-.2-.1zm-.1-37.4c-2.5-1.2-5.5-2.1-8.9-2.1-9 0-13.9 6.8-13.9 15.1 0 8.2 4.7 14.7 13.2 14.7 3.7 0 7.1-1.2 9.6-2.8v-24.9zM177.5 388.6h24.3c9.7 0 17.8.9 24.3 4.3 7.1 3.7 13.2 10.7 13.2 21.8 0 10-4.9 17.3-11.7 21.3-6.3 3.7-14.4 5.1-26.4 5.1h-5.6v29.2h-17.9v-81.7zm24.4 37.9c7.1 0 11.2-.3 14.2-2 3.3-1.8 5.1-4.9 5.1-8.9 0-4.6-2-7.9-5.8-9.6-3.3-1.5-7.7-1.7-14-1.7h-6.1v22.2h6.6zM248.4 414.7h16.8v7.4l.2.1c3.8-5.4 9.3-8.2 16.1-8.2 1.1 0 2.4.1 3.6.5v16.1c-1.4-.3-3-.6-4.6-.6-6 0-10.9 1.8-15 6.5v33.6h-17.2v-55.4zM320.6 413.5c17.7 0 30.9 12.6 30.9 29s-13.2 29-30.9 29-30.9-12.6-30.9-29c-.1-16.4 13.1-29 30.9-29zm0 43.2c7.8 0 13.8-6.3 13.8-14.2 0-7.9-6-14.2-13.8-14.2-7.8 0-13.8 6.3-13.8 14.2 0 7.9 6 14.2 13.8 14.2zM353.4 414.7h18.1l6.5 17.8c2.1 5.9 4.3 12 6.2 17.6h.2c2-5.6 4.4-12 6.7-17.7l6.9-17.7h16.9l-22.6 55.5H376l-22.6-55.5zM431.3 387.3c5.4 0 9.9 4.4 9.9 9.8s-4.5 9.8-9.9 9.8-9.9-4.4-9.9-9.8c-.1-5.4 4.4-9.8 9.9-9.8zm-8.6 27.4h17.2v55.5h-17.2v-55.5zM491.2 467.2c-3.7 2.6-8.7 4.3-14.1 4.3-14 0-26.1-10.8-26.1-27.9 0-17.5 12.8-30.1 29.3-30.1 4.2 0 7.6.8 10.5 2l.2-.1V384h17.2v86.2h-16.8v-2.9l-.2-.1zm-.1-37.3c-2.5-1.2-5.5-2.1-8.9-2.1-9 0-13.9 6.8-13.9 15.1 0 8.2 4.7 14.7 13.2 14.7 3.7 0 7.1-1.2 9.6-2.8v-24.9zM536.6 447c1.9 7.7 8.2 11.2 16.1 11.2 6.2 0 13-2.1 18.8-6.1v14.3c-5.4 3.4-13.8 5.1-21.1 5.1-18.3 0-31.5-11.4-31.5-28.8 0-17.7 13.8-29.2 29.1-29.2 13.7 0 26.5 9 26.5 27.7 0 1.9-.1 4.4-.3 5.9h-37.6zm22.2-10.8c-1-6-5.4-9.6-10.9-9.6-5.3 0-9.9 3.3-11.4 9.6h22.3zM585.8 414.7h16.8v7.4l.2.1c3.8-5.4 9.3-8.2 16.1-8.2 1.1 0 2.4.1 3.6.5v16.1c-1.4-.3-3-.6-4.6-.6-6 0-10.9 1.8-15 6.5v33.6h-17.2v-55.4z" class="st1"/><path d="M751.9 385.3c-.2-3.2-2.7-5.9-6-6.1-3.5-.2-6.5 2.5-6.7 6-2.3 45.2-12.1 89.6-29.8 130.5-17.6 40.9-42.6 78.4-73.6 109.8-1.9 2-3.9 3.9-5.9 5.8l-6 5.7c-1.9 1.9-4.1 3.7-6.2 5.5l-6.2 5.4-1.6 1.3 2 6.1 4.7 14.1 3.5 10.6c13-10.7 25.3-22.2 36.7-34.5 32.4-35.2 57.7-76.8 73.9-121.4 16.1-44.4 23.5-92 21.2-138.8zM187.8 655.5l2.1-6.3-1.4-1.2-6.2-5.4c-2.1-1.8-4.2-3.5-6.2-5.5l-6-5.7c-2-1.9-4-3.8-5.9-5.8-31-31.4-56-68.8-73.6-109.8-17.6-40.9-27.4-85.3-29.7-130.5v-.1c-.2-3.3-2.8-5.9-6.1-6.1-3.6-.2-6.6 2.6-6.7 6.1-2.3 46.8 5.1 94.3 21.3 139 16.2 44.6 41.4 86.2 73.9 121.4 11.3 12.3 23.5 23.8 36.5 34.4l3.5-10.5 4.5-14z" class="st2"/><path d="m614.7 690.8-1.7-5-4.5-13.6-4.7-14.1-1.1-3.2-26.2-78.8-12.1-36.6H235.3l-12.1 36.6-26.2 78.7-1.1 3.4-4.7 14.1-4.5 13.4-1.7 5.1-11.3 34 6.4 4.1c1.5.9 2.9 1.8 4.5 2.8 3 1.9 6.2 3.7 9.4 5.6 5.9 3.4 12.3 6.9 19 10.3 2.4 1.3 4.9 2.5 7.5 3.8 1.9.9 3.8 1.9 5.8 2.8 3.3 1.6 6.7 3.1 10.2 4.6 2.7 1.2 5.4 2.3 8.1 3.5 10.5 4.4 21.7 8.5 33.5 12.3 4.7 1.5 9.5 3 14.4 4.3 9.8 2.8 20 5.2 30.6 7.3 2.6.5 5.3 1 8 1.5 5.4 1 10.8 1.8 16.4 2.6 13.9 1.9 28.3 3.1 43.3 3.5 3 .1 6 .1 9 .1 24.3-.1 47.2-2.4 68.7-6.3 2.7-.5 5.4-1 8-1.5 10.6-2.1 20.8-4.6 30.6-7.3 4.9-1.4 9.7-2.8 14.4-4.3 11.8-3.8 23-7.9 33.5-12.3 2.1-.9 4.2-1.8 6.2-2.7 4.1-1.8 8.1-3.6 12-5.4 3.9-1.8 7.7-3.7 11.4-5.6 12.9-6.6 24.5-13.3 34.7-19.7l6.4-4.1-11-33.9zm-255.9 81.4c-4.8-.5-9.6-1.2-14.3-1.9-7-1.1-13.8-2.3-20.4-3.7l-2.7-.6c-3.8-.8-7.6-1.7-11.3-2.6-5-1.3-10-2.6-14.8-4-6.6-1.9-13-4-19.2-6.2-6.2-2.2-12.2-4.4-18.1-6.8-3.9-1.6-7.7-3.2-11.4-4.8-3.7-1.6-7.3-3.3-10.9-5-14.2-6.7-26.9-13.8-38.2-20.6l5-15.1 1-3 5.1-15.4 4.7-14 .5-1.4 26.4-79.6 4.7-14.2 4.7-14.2h300.6l9.5 28.5 26.5 79.8.4 1.2 4.7 14 5.1 15.5 1 2.9 5 15.1c-21.2 12.8-47.4 26.4-78.5 37.2-4.1 1.4-8.4 2.8-12.7 4.2-2.2.7-4.3 1.3-6.5 2-4.4 1.3-8.9 2.5-13.5 3.7-11.4 2.9-23.4 5.3-35.9 7.2-17.5 2.7-35.9 4.2-55.4 4.3-10.9-.1-21.5-.6-31.8-1.5-3.1-.3-6.3-.7-9.3-1z" class="st1"/><path d="M301.1 687.5c-13.2 0-16.7-12.8-14.4-28.9.2-1.5.5-3.1.8-4.5h-32.1c-.3 1.5-.5 3-.7 4.5-4.6 31.2 9.5 54.4 42.3 54.4 26.2 0 40.5-13.4 49.9-27.3L323 672.6c-7.5 9.9-12.3 14.9-21.9 14.9zM309.3 629.6c10.1 0 13 6.2 15.5 16l29.3-10.4c-4.6-19.9-13.7-31-40.9-31-24.5 0-45.1 14-54.3 38.1h32.6c3.9-7.8 9.7-12.7 17.8-12.7zM362.3 642.2l38.9.1c-6.2-1.9-8-3.7-7.5-6.5.6-3.8 3.2-6.5 12.3-6.5 11.2 0 20.4 3.6 29.3 9.9l18.2-22.9c-10.5-7.8-23.4-12.2-42.2-12.2-26.7 0-45.5 13.4-48.4 33.3-.4 1.8-.6 3.3-.6 4.8zM435.5 654l-71.1.1c4.4 8.9 15.3 13.3 32.7 17.3 14.3 3.3 17.9 5.7 17.4 9.6-.7 5-4.5 6.8-15.4 6.8-10.3 0-23.5-5.3-30.8-10.5l-18.2 22.9c10.5 7.2 26.8 12.8 44.7 12.8 26.5 0 47-9.9 50.6-34 1.8-11.8-1.4-19.4-9.9-25zM518.3 605.9h-26.6l-17.2 36.4h50.4zM527 654h-25.3l1.7 15.5h-15.8l6.5-15.5h-25.2l-27.1 57.3H470l7.9-18.6h28.4l2.5 18.6h28.4z" class="st1"/></svg>
